<svg xmlns="http://www.w3.org/2000/svg" viewBox="0 0 272.28 116.11"><defs><style>.cls-1{fill:#a9a9f5;}</style></defs><title>logo-isur</title><g id="Layer_2" data-name="Layer 2"><g id="Layer_1-2" data-name="Layer 1"><path class="cls-1" d="M134.77,115.87h-4.37V.79h4.37Z"/><path class="cls-1" d="M150,14.77c0,5.24,2.86,9.05,7.86,10.4l9.92,2.7c6,1.59,10.88,6.43,10.88,14.37,0,8.1-5,14.93-16.2,14.93-9.84,0-16.91-6.27-17.7-16.67h4.37c.71,8.26,6.59,12.38,13.34,12.38,7.46,0,11.83-3.65,11.83-10.64,0-4.37-2.38-8.57-8.26-10.16l-9.61-2.62c-7.07-1.91-10.8-7.62-10.8-14.69C145.65,6.59,151.21,0,161.37,0c9,0,14.85,5.32,16.43,14.29h-4.37c-1.51-6.75-5.8-10-12.07-10C153.91,4.29,150,9,150,14.77Z"/><path class="cls-1" d="M188.44.79h4.37V38.35c0,9.84,6,14.53,13.18,14.53s13.18-4.68,13.18-14.53V.79h4.37V38.35c0,11.67-7.46,18.82-17.54,18.82S188.44,50,188.44,38.35Z"/><path class="cls-1" d="M240.68,30.33v26h-4.37V.79h18.9c9.21,0,15.24,6.35,15.24,14.85,0,7.94-5.32,13.89-13.58,14.61l15.4,26.12h-5L252,30.33Zm14.53-4.21c5.87,0,10.88-3.65,10.88-10.48s-5-10.56-10.88-10.56H240.68v21Z"/><path class="cls-1" d="M35.09,96.5c0,11.67-7.46,18.82-17.54,18.82H0V59.75H17.55c10.08,0,17.54,7.15,17.54,18.82ZM4.37,111H17.55c7.22,0,13.18-4.68,13.18-14.53V78.56c0-9.84-6-14.53-13.18-14.53H4.37Z"/><path class="cls-1" d="M51.29,111H77.65v4.29H46.92V59.75H77.65V64H51.29v21H77.65v4.21H51.29Z"/><path class="cls-1" d="M91.62,73.72c0,5.24,2.86,9.05,7.86,10.4l9.92,2.7c6,1.59,10.88,6.43,10.88,14.37,0,8.1-5,14.93-16.2,14.93-9.84,0-16.91-6.27-17.7-16.67h4.37c.71,8.26,6.59,12.38,13.34,12.38,7.46,0,11.83-3.65,11.83-10.64,0-4.37-2.38-8.57-8.26-10.16L98,88.41C91,86.5,87.25,80.78,87.25,73.72,87.25,65.54,92.81,59,103,59c9,0,14.85,5.32,16.43,14.29H115c-1.51-6.75-5.8-10-12.07-10C95.51,63.24,91.62,67.92,91.62,73.72Z"/><path class="cls-1" d="M164.5,86.66H182V97.3c0,11.67-7.46,18.82-17.55,18.82S147,109,147,97.3V77.77C147,66.1,154.42,59,164.5,59c9.45,0,16.59,6.27,17.47,16.67H177.6c-.79-8.34-6.43-12.39-13.1-12.39-7.22,0-13.18,4.68-13.18,14.53V97.3c0,9.84,6,14.53,13.18,14.53s13.18-4.68,13.18-14.53V90.87H164.5Z"/><path class="cls-1" d="M228.65,115.32h-4.37L197.92,68.4v46.92h-4.37V59.75h4.37l26.36,46.92V59.75h4.37Z"/></g></g></svg>