<svg xmlns="http://www.w3.org/2000/svg" viewBox="0 0 265 265"><defs><style>.cls-1{opacity:0;}.cls-2{fill:#fff;}.cls-3{fill:#a9a9f5;}</style></defs><title>logo-ins_2</title><g id="Layer_2" data-name="Layer 2"><g id="Layer_1-2" data-name="Layer 1"><g class="cls-1"><rect class="cls-2" x="0.5" y="0.5" width="264" height="264"/><path d="M264,1V264H1V1H264m1-1H0V265H265V0Z"/></g><path class="cls-3" d="M156.26,83A18.76,18.76,0,0,1,175,101.74v57.52A18.76,18.76,0,0,1,156.26,178H86.74A18.76,18.76,0,0,1,68,159.26V101.74A18.76,18.76,0,0,1,86.74,83h69.52m0-12H86.74A30.83,30.83,0,0,0,56,101.74v57.52A30.83,30.83,0,0,0,86.74,190h69.52A30.83,30.83,0,0,0,187,159.26V101.74A30.83,30.83,0,0,0,156.26,71Z"/><path class="cls-3" d="M121.84,109.34a21.16,21.16,0,0,1,0,42.31h-.69a21.16,21.16,0,0,1,0-42.31h.69m0-12h-.69A33.25,33.25,0,0,0,88,130.5h0a33.25,33.25,0,0,0,33.16,33.16h.69A33.25,33.25,0,0,0,155,130.5h0a33.25,33.25,0,0,0-33.16-33.16Z"/><path class="cls-3" d="M155.5,90a6.5,6.5,0,1,0,6.5,6.5,6.5,6.5,0,0,0-6.5-6.5Z"/></g></g></svg>