<svg xmlns="http://www.w3.org/2000/svg" viewBox="0 0 114.02 48.62"><defs><style>.cls-1{fill:#fff;}</style></defs><title>logo-isur-white</title><g id="Layer_2" data-name="Layer 2"><g id="Layer_1-2" data-name="Layer 1"><path class="cls-1" d="M56.44,48.52H54.61V.33h1.83Z"/><path class="cls-1" d="M62.82,6.18a4.24,4.24,0,0,0,3.29,4.36l4.16,1.13a5.94,5.94,0,0,1,4.55,6c0,3.39-2.09,6.25-6.78,6.25-4.12,0-7.08-2.63-7.41-7h1.83A5.34,5.34,0,0,0,68,22.14c3.12,0,5-1.53,5-4.45a4.26,4.26,0,0,0-3.46-4.26l-4-1.1A6,6,0,0,1,61,6.18C61,2.76,63.32,0,67.57,0c3.76,0,6.22,2.23,6.88,6H72.63C72,3.16,70.2,1.8,67.57,1.8,64.45,1.8,62.82,3.76,62.82,6.18Z"/><path class="cls-1" d="M78.91.33h1.83V16.06c0,4.12,2.49,6.08,5.52,6.08s5.52-2,5.52-6.08V.33h1.83V16.06c0,4.89-3.12,7.88-7.35,7.88s-7.35-3-7.35-7.88Z"/><path class="cls-1" d="M100.79,12.7V23.6H99V.33h7.91a6,6,0,0,1,6.38,6.22,5.92,5.92,0,0,1-5.69,6.12L114,23.6h-2.09l-6.42-10.9Zm6.08-1.76a4.25,4.25,0,0,0,4.55-4.39,4.27,4.27,0,0,0-4.55-4.42h-6.08v8.81Z"/><path class="cls-1" d="M14.69,40.41c0,4.89-3.12,7.88-7.35,7.88H0V25H7.35c4.22,0,7.35,3,7.35,7.88ZM1.83,46.5H7.35c3,0,5.52-2,5.52-6.08V32.9c0-4.12-2.49-6.08-5.52-6.08H1.83Z"/><path class="cls-1" d="M21.48,46.5h11v1.8H19.65V25H32.51v1.8h-11v8.81h11v1.76h-11Z"/><path class="cls-1" d="M38.37,30.87a4.24,4.24,0,0,0,3.29,4.36l4.16,1.13a5.94,5.94,0,0,1,4.55,6c0,3.39-2.09,6.25-6.78,6.25-4.12,0-7.08-2.63-7.41-7H38a5.34,5.34,0,0,0,5.59,5.19c3.12,0,5-1.53,5-4.45a4.26,4.26,0,0,0-3.46-4.26l-4-1.1a6,6,0,0,1-4.52-6.15c0-3.42,2.33-6.18,6.58-6.18,3.76,0,6.22,2.23,6.88,6H48.17c-.63-2.83-2.43-4.19-5.05-4.19C40,26.48,38.37,28.44,38.37,30.87Z"/><path class="cls-1" d="M68.89,36.29h7.35v4.45c0,4.89-3.13,7.88-7.35,7.88s-7.35-3-7.35-7.88V32.57c0-4.89,3.12-7.88,7.35-7.88,4,0,6.95,2.63,7.31,7H74.37a5.28,5.28,0,0,0-5.49-5.19c-3,0-5.52,2-5.52,6.08v8.18c0,4.12,2.49,6.08,5.52,6.08s5.52-2,5.52-6.08V38.05H68.89Z"/><path class="cls-1" d="M95.75,48.29H93.92l-11-19.65V48.29H81.05V25h1.83l11,19.65V25h1.83Z"/></g></g></svg>